Coordinates
version=1
nRows=9
nColumns=63
inDegrees=yes

Units are S.I. units (second, meters, Newtons, ...)
If the header above contains a line with 'inDegrees', this indicates whether rotational values are in degrees (yes) or radians (no).

endheader
time	pelvis_tilt	pelvis_list	pelvis_rotation	pelvis_tx	pelvis_ty	pelvis_tz	hip_flexion_r	hip_adduction_r	hip_rotation_r	knee_angle_r	knee_angle_r_beta	ankle_angle_r	subtalar_angle_r	mtp_angle_r	hip_flexion_l	hip_adduction_l	hip_rotation_l	knee_angle_l	knee_angle_l_beta	ankle_angle_l	subtalar_angle_l	mtp_angle_l	L5_S1_Flex_Ext	L5_S1_Lat_Bending	L5_S1_axial_rotation	L4_L5_Flex_Ext	L4_L5_Lat_Bending	L4_L5_axial_rotation	L3_L4_Flex_Ext	L3_L4_Lat_Bending	L3_L4_axial_rotation	L2_L3_Flex_Ext	L2_L3_Lat_Bending	L2_L3_axial_rotation	L1_L2_Flex_Ext	L1_L2_Lat_Bending	L1_L2_axial_rotation	L1_T12_Flex_Ext	L1_T12_Lat_Bending	L1_T12_axial_rotation	Abs_r3	Abs_r2	Abs_r1	Abs_t1	Abs_t2	neck_flexion	neck_bending	neck_rotation	arm_flex_r	arm_add_r	arm_rot_r	elbow_flex_r	pro_sup_r	wrist_flex_r	wrist_dev_r	arm_flex_l	arm_add_l	arm_rot_l	elbow_flex_l	pro_sup_l	wrist_flex_l	wrist_dev_l
      3.18333333	      7.90373039	     -0.34733387	    106.16418126	      0.20376784	      0.84974741	      0.54437935	     10.76101916	      3.84965670	     -9.73791017	     20.37591187	      0.35562675	     29.06635194	     -3.37758807	      0.00000000	      6.01670912	     -8.99254108	      3.81789763	      8.30817742	      0.14500505	     28.25317056	     16.36248105	      0.00000000	      0.02847980	      0.73325543	      0.14373006	      0.05288984	      0.97522973	      0.15271319	      0.04678947	      1.78283726	      0.15271319	      0.03254957	      1.78283726	      0.12576380	      0.02644634	      1.49525448	      0.11678068	      0.01627336	      1.13581267	      0.10779755	      0.20342838	      8.29473211	      0.79938348	      0.00000000	      0.00000000	     14.60022323	     -4.45952634	     -0.32927806	     -4.07239107	    -21.51792716	     36.34347639	     98.63041588	     86.66181325	     15.18523461	     13.68951733	     -5.28987008	    -11.75847068	     28.05044625	    107.89496177	     76.95379426	      0.95880272	     11.22879146
      3.20000000	      7.83123893	     -0.76692546	    105.78329510	      0.20343759	      0.84990691	      0.54709907	     11.13082675	      3.53268864	     -9.93905957	     20.16439172	      0.35193503	     28.81971501	     -2.85784571	      0.00000000	      6.21458137	     -8.77055443	      3.48022452	      7.79585566	      0.13606335	     27.67154824	     16.24362793	      0.00000000	      0.01657505	      0.76438660	     -0.16579629	      0.03078153	      1.01663418	     -0.17615856	      0.02723115	      1.85852959	     -0.17615856	      0.01894362	      1.85852959	     -0.14507176	      0.01539159	      1.55873716	     -0.13470949	      0.00947098	      1.18403485	     -0.12434722	      0.11839392	      8.64689414	     -0.92210925	      0.00000000	      0.00000000	     15.56179809	     -3.99044739	      2.80343484	     -3.22985306	    -21.96324690	     39.80774612	     96.22935294	     87.46798330	     13.11576759	      9.61195565	     -5.20557174	    -12.18695065	     29.10633461	    103.41020002	     80.03903559	      5.14114365	     11.73237889
      3.21666667	      7.73746178	     -1.19133411	    105.24059728	      0.20328488	      0.85051487	      0.54976358	     11.31616919	      3.32134214	     -9.63691161	     19.59571946	      0.34200982	     28.03941390	     -2.87892321	      0.00000000	      6.48948168	     -8.53954536	      2.92848518	      7.43030676	      0.12968332	     27.07571657	     16.20418040	      0.00000000	      0.00758820	      0.78861138	     -0.44895880	      0.01409205	      1.04885313	     -0.47701873	      0.01246665	      1.91742970	     -0.47701873	      0.00867255	      1.91742970	     -0.39283895	      0.00704640	      1.60813632	     -0.36477903	      0.00433590	      1.22155902	     -0.33671910	      0.05420176	      8.92092960	     -2.49697416	      0.00000000	      0.00000000	     16.34484714	     -3.39987102	      5.38472996	     -1.89079680	    -22.41128501	     43.58507714	     93.49339018	     87.80146412	      9.82631867	      5.62764496	     -5.03264758	    -12.67760378	     30.60139393	     98.46449129	     83.49514731	      9.01934635	     10.92259101
      3.23333333	      7.63378561	     -1.53836695	    104.47160465	      0.20349146	      0.85154149	      0.55212541	     11.19875463	      3.25351267	     -8.90330077	     18.60907952	      0.32478971	     26.73585093	     -3.13802126	      0.00000000	      6.66309249	     -8.34986552	      2.27704618	      7.08616136	      0.12367685	     26.51244218	     16.24868771	      0.00000000	     -0.00093988	      0.80709535	     -0.64042571	     -0.00174545	      1.07343681	     -0.68045232	     -0.00154413	      1.96237163	     -0.68045232	     -0.00107419	      1.96237163	     -0.56037250	     -0.00087277	      1.64582883	     -0.52034589	     -0.00053705	      1.25019069	     -0.48031928	     -0.00671346	      9.13002399	     -3.56185567	      0.00000000	      0.00000000	     16.83649675	     -2.50902652	      7.40785254	     -0.55505726	    -22.50724827	     46.61973330	     90.28305006	     87.85232716	      7.07896901	      2.42640505	     -4.45522725	    -12.86112580	     32.87197084	     93.20406337	     85.36757525	     10.09741436	      9.19997705
      3.25000000	      7.47305394	     -1.90719032	    103.61307454	      0.20412694	      0.85259560	      0.55434535	     11.03296018	      3.25325761	     -7.47638513	     17.54042756	      0.30613821	     24.95121494	     -4.14729153	      0.00000000	      6.91864299	     -8.12520156	      1.70079203	      6.87818089	      0.12004690	     26.06130880	     16.34663793	      0.00000000	      0.00086517	      0.80710591	     -0.77725106	      0.00160671	      1.07345086	     -0.82582925	      0.00142139	      1.96239732	     -0.82582925	      0.00098880	      1.96239732	     -0.68009468	      0.00080340	      1.64585038	     -0.63151649	      0.00049436	      1.25020706	     -0.58293830	      0.00617983	      9.13014351	     -4.32283723	      0.00000000	      0.00000000	     17.24025088	     -1.70047441	      8.43235405	      0.90726661	    -22.24903548	     49.41168050	     86.73364035	     87.79516292	      3.54547546	      0.27168950	     -3.59887984	    -12.48486445	     35.08241186	     88.16536708	     86.12357675	      8.72033527	      7.58523817
      3.26666667	      7.33797461	     -2.36286639	    102.57051733	      0.20511983	      0.85352832	      0.55639656	     10.91875900	      3.40341653	     -5.15846296	     16.37811989	      0.28585212	     22.64532517	     -6.20428313	      0.00000000	      7.27401295	     -7.94572181	      1.00559277	      6.74278196	      0.11768375	     25.62629617	     16.48707255	      0.00000000	      0.02091783	      0.80559804	     -0.81917362	      0.03884649	      1.07144539	     -0.87037197	      0.03436590	      1.95873107	     -0.87037197	      0.02390698	      1.95873107	     -0.71677692	      0.01942429	      1.64277552	     -0.66557857	      0.01195245	      1.24787136	     -0.61438021	      0.14941393	      9.11308613	     -4.55599792	      0.00000000	      0.00000000	     17.77199758	     -0.95746688	      9.06425262	      2.00408946	    -21.59583358	     51.16650712	     82.98381312	     87.65684122	      0.13173849	     -0.89679679	     -2.38310080	    -11.54800309	     37.19315182	     83.69374206	     85.89246771	      4.85297238	      6.94724942
      3.28333333	      7.21840871	     -2.83685833	    101.44933677	      0.20639067	      0.85450256	      0.55820156	     10.73669651	      3.69345140	     -2.04053459	     15.03403147	      0.26239335	     19.88289442	     -9.56517477	      0.00000000	      7.69550520	     -7.81746567	      0.31810496	      6.74362190	      0.11769841	     25.22244097	     16.59880728	      0.00000000	      0.04630258	      0.80384868	     -0.79132002	      0.08598852	      1.06911874	     -0.84077752	      0.07607051	      1.95447768	     -0.84077752	      0.05291922	      1.95447768	     -0.69240502	      0.04299658	      1.63920823	     -0.64294752	      0.02645730	      1.24516160	     -0.59349001	      0.33073471	      9.09329703	     -4.40108455	      0.00000000	      0.00000000	     18.52085906	     -0.46848404	      9.37998475	      2.73023751	    -20.60018291	     51.68952045	     79.08932855	     87.44140579	     -1.98588599	     -0.82180837	     -0.79140405	    -10.14977888	     38.85057847	     79.65885834	     85.18351138	      0.88996738	      7.51809903
      3.30000000	      7.10293886	     -3.34700726	    100.29268343	      0.20731992	      0.85545193	      0.56001749	     10.68109966	      3.60142499	     -1.33525226	     13.86875057	      0.24205536	     18.30163713	     -9.21192391	      0.00000000	      8.17646616	     -7.68033889	     -0.28109144	      6.82892258	      0.11918718	     24.71362407	     16.50302080	      0.00000000	      0.07469563	      0.81324930	     -0.72857791	      0.13871726	      1.08162158	     -0.77411403	      0.12271746	      1.97733436	     -0.77411403	      0.08536964	      1.97733436	     -0.63750567	      0.06936237	      1.65837798	     -0.59196955	      0.04268109	      1.25972317	     -0.54643343	      0.53354345	      9.19963879	     -4.05213177	      0.00000000	      0.00000000	     19.58656353	     -0.31894474	      9.98801927	      3.30062676	    -19.50909110	     51.42007146	     75.14760775	     87.16388571	     -2.91553227	      0.10912584	      1.04532590	     -8.28272602	     39.64436840	     75.63772444	     84.92888254	     -0.96592720	      9.02445055
      3.31666667	      7.09128820	     -3.84066996	     98.92784426	      0.20841541	      0.85632234	      0.56176449	     10.76659002	      3.75986161	      0.62441542	     12.90165868	      0.22517642	     16.56895615	    -10.34214931	      0.00000000	      8.52983121	     -7.72588698	     -1.38137541	      6.79355030	      0.11856982	     24.17613105	     16.72802204	      0.00000000	      0.10025889	      0.83921751	     -0.56324573	      0.18619078	      1.11615929	     -0.59844859	      0.16471533	      2.04047346	     -0.59844859	      0.11458588	      2.04047346	     -0.49284001	      0.09310040	      1.71133235	     -0.45763715	      0.05728793	      1.29994793	     -0.42243430	      0.71613921	      9.49339635	     -3.13260377	      0.00000000	      0.00000000	     20.96204338	     -0.73837519	     10.09400682	      3.59482182	    -18.42901644	     50.59038659	     71.37320136	     86.76505618	     -3.80608392	      1.69733808	      3.48907816	     -6.63298813	     42.10275045	     71.66100095	     83.55734477	     -6.41713192	     10.22967927
